<svg xmlns="http://www.w3.org/2000/svg" xmlns:xlink="http://www.w3.org/1999/xlink" width="512" height="640" viewBox="0 0 512 640"><svg width="512" height="512" viewBox="0 0 512 512" id="accessibility" y="0"><g class="svgGrid" stroke="#B35047"><path d="M32 0v512M64 0v512M96 0v512M128 0v512M160 0v512M192 0v512M224 0v512M256 0v512M288 0v512M320 0v512M352 0v512M384 0v512M416 0v512M448 0v512M480 0v512M0 32h512M0 64h512M0 96h512M0 128h512M0 160h512M0 192h512M0 224h512M0 256h512M0 288h512M0 320h512M0 352h512M0 384h512M0 416h512M0 448h512M0 480h512"/><path d="M0 0h512v512H0z" fill="none"/></g><path d="M480 96V64l-224 64L32 64v32l160 64v128l-64 224h32l96-224 96 224h32l-64-224V160zM208 48a48 48 12240 1 0 96 0 48 48 12240 1 0-96 0z"/></svg>
<svg width="128" height="128" class="iconic iconic-account iconic-size-lg iconic-account-login" viewBox="0 0 128 128" id="account-login-lg" y="512"><title>Account Login</title><g class="iconic-container iconic-account-login"><path stroke="#000" stroke-width="8" stroke-linecap="square" stroke-miterlimit="10" class="iconic-account-login-entrance iconic-property-accent iconic-property-stroke" d="M46 4h78v120H46" fill="none"/><path stroke="#000" stroke-width="8" stroke-linecap="square" stroke-miterlimit="10" class="iconic-account-login-arrow iconic-account-login-arrow-line iconic-property-stroke" d="M4 64h76" fill="none"/><path d="M90.7 63.2L69.3 50.8c-.7-.4-1.3-.1-1.3.7v25c0 .8.6 1.2 1.3.7l21.4-12.5c.7-.4.7-1 0-1.5z" class="iconic-account-login-arrow iconic-account-login-arrow-head iconic-property-fill"/></g></svg>
</svg>